<?xml version="1.0" encoding="UTF-8"?>
<svg id="Layer_1" data-name="Layer 1" xmlns="http://www.w3.org/2000/svg" xmlns:xlink="http://www.w3.org/1999/xlink" viewBox="0 0 904.33 158.32">
  <defs>
    <style>
      .cls-1 {
        fill: url(#Summer-2);
      }

      .cls-2 {
        fill: url(#Summer);
      }
    </style>
    <radialGradient id="Summer" cx="157.75" cy="81.09" fx="157.75" fy="81.09" r="95.05" gradientUnits="userSpaceOnUse">
      <stop offset="0" stop-color="#fff"/>
      <stop offset=".09" stop-color="#ffecd8"/>
      <stop offset=".21" stop-color="#ffd4a7"/>
      <stop offset=".33" stop-color="#ffc07d"/>
      <stop offset=".46" stop-color="#ffb05a"/>
      <stop offset=".59" stop-color="#ffa340"/>
      <stop offset=".72" stop-color="#ff9a2d"/>
      <stop offset=".86" stop-color="#ff9421"/>
      <stop offset="1" stop-color="#ff931e"/>
    </radialGradient>
    <radialGradient id="Summer-2" data-name="Summer" cx="150.69" cy="118.45" fx="150.69" fy="118.45" r="53.04" xlink:href="#Summer"/>
  </defs>
  <g>
    <path d="M255.73,153.14v-.62c0-4.15,7.88-5.39,7.88-13.48V26.19c0-7.68-7.88-9.13-7.88-13.48v-.83c0-1.87,1.66-2.9,4.56-2.9h42.94c35.68,0,65.55,13.28,65.55,47.92,0,31.53-22.82,50.4-60.15,50.4h-19.91v31.74c0,8.09,8.5,9.33,8.5,13.48v.62c0,1.87-1.87,3.11-4.36,3.11h-32.57c-2.9,0-4.56-1.24-4.56-3.11ZM296.8,96.93h11.82c21.57,0,34.43-13.9,34.43-34.02,0-29.25-19.71-43.56-39.83-43.56h-8.5c-3.94,0-6.02,2.9-6.02,7.88v61.4c0,5.19,2.49,8.3,8.09,8.3Z"/>
    <path d="M381.21,153.14v-.83c0-4.56,7.68-5.39,7.68-13.48v-54.35c0-8.5-7.68-10.58-7.68-14.31v-.62c0-1.66,1.45-2.49,3.73-3.73l20.74-10.37c4.77-2.28,7.47.21,7.47,3.53v79.86c0,8.09,8.5,8.92,8.5,13.48v.83c0,1.87-1.87,3.11-4.56,3.11h-31.53c-2.7,0-4.36-1.24-4.36-3.11ZM400.92,8.35c10.16,0,16.8,6.64,16.8,15.56s-6.64,15.56-16.8,15.56-17.22-6.43-17.22-15.56,6.85-15.56,17.22-15.56Z"/>
    <path d="M434.52,153.14v-.62c0-4.77,7.67-5.39,7.67-13.48V29.72c0-8.71-7.67-10.37-7.67-14.1v-.62c0-1.87,1.45-2.7,3.53-3.73l20.95-10.37c4.77-2.28,7.47.21,7.47,3.32v134.83c0,8.09,8.5,8.71,8.5,13.48v.62c0,1.87-1.87,3.11-4.56,3.11h-31.53c-2.7,0-4.36-1.24-4.36-3.11Z"/>
    <path d="M487.62,105.43c0-29.45,23.02-50.82,51.44-50.82,32.77,0,54.76,23.85,54.76,52.48s-19.91,51.23-49.99,51.23c-35.26,0-56.21-25.31-56.21-52.89ZM546.94,150.44c12.86,0,22.4-12.45,22.4-34.85,0-29.04-13.9-53.1-32.98-53.1-14.73,0-24.27,12.03-24.27,34.85,0,25.72,13.9,53.1,34.85,53.1Z"/>
    <path d="M616.01,124.72v-57.87h-11.82c-2.07,0-3.53-1.45-3.53-3.53v-2.9c0-2.28,1.24-3.73,3.53-3.73h6.43c10.79,0,17.22-8.09,18.88-20.12.41-2.9,2.07-4.56,4.15-4.56h3.11c2.7,0,3.94,1.66,3.94,4.56l.21,20.12h26.14c2.07,0,3.73,1.66,3.73,3.73v2.9c0,2.07-1.66,3.53-3.73,3.53h-26.14v58.08c0,9.96,4.98,15.35,11.82,15.35,8.71,0,13.48-4.77,14.73-10.79,1.87-3.32,6.84-2.7,6.84,1.04,0,13.9-10.58,27.79-29.25,27.79-17.42,0-29.04-11.2-29.04-33.6Z"/>
    <path d="M714.12,153.35v-.62c0-4.56,7.05-4.77,10.58-13.69l43.56-111.8c2.7-6.85-6.84-10.79-6.84-14.73v-.62c0-1.66,1.24-2.9,3.53-2.9h16.39c5.6,0,8.92,2.28,11.2,7.88l52.06,122.17c3.73,8.71,10.58,9.13,10.58,13.69v.62c0,1.87-1.66,2.9-4.36,2.9h-36.92c-2.7,0-4.36-1.04-4.36-2.9v-.62c0-4.56,10.79-5.6,7.67-13.69l-8.09-20.54h-62.64l-7.67,20.54c-3.11,8.09,7.67,9.13,7.67,13.69v.62c0,1.87-1.66,2.9-4.56,2.9h-23.44c-2.7,0-4.36-1.04-4.36-2.9ZM804.77,107.3l-27.8-70.94-26.34,70.94h54.14Z"/>
    <path d="M870.93,139.24V26.19c0-8.09-7.67-9.13-7.67-13.69v-.62c0-1.87,1.66-2.9,4.36-2.9h32.36c2.7,0,4.36,1.04,4.36,2.9v.62c0,4.56-8.3,5.6-8.3,13.69v113.05c0,8.09,8.3,9.13,8.3,13.48v.62c0,1.87-1.66,2.9-4.36,2.9h-32.36c-2.7,0-4.36-1.04-4.36-2.9v-.62c0-4.36,7.67-5.39,7.67-13.48Z"/>
  </g>
  <g>
    <path class="cls-2" d="M226.15,154.32v-75.05c0-38.84-31.48-70.32-70.32-70.32H0l8.65,8.65c23.42,23.42,55.18,36.58,88.3,36.58h50.43c28.29,0,53.3,18.35,61.8,45.33s17.2,54.81,16.97,54.81Z"/>
    <path class="cls-1" d="M187.45,156.25v-41.87c0-21.67-17.57-39.24-39.24-39.24H61.26l4.83,4.83c13.07,13.07,30.79,20.41,49.27,20.41h28.14c15.78,0,29.74,10.24,34.48,25.3,4.66,14.79,9.6,30.58,9.47,30.58Z"/>
  </g>
</svg>